<?xml version="1.0" encoding="utf-8"?>
<!-- Generator: Adobe Illustrator 16.0.0, SVG Export Plug-In . SVG Version: 6.00 Build 0)  -->
<!DOCTYPE svg PUBLIC "-//W3C//DTD SVG 1.1//EN" "http://www.w3.org/Graphics/SVG/1.1/DTD/svg11.dtd">
<svg version="1.1" id="图层_1" xmlns="http://www.w3.org/2000/svg" xmlns:xlink="http://www.w3.org/1999/xlink" x="0px" y="0px"
	 width="1000px" height="1000px" viewBox="0 0 1000 1000" enable-background="new 0 0 1000 1000" xml:space="preserve">
	<path fill="#2932E1" d="M413.676,351.513c46.672,0,84.573-53.255,84.573-119.013c0-65.951-37.901-119.047-84.573-119.047
		c-46.573,0-84.539,53.097-84.539,119.047C329.136,298.255,367.104,351.513,413.676,351.513z M256.675,519.593
		c84.686-18.231,73.173-118.097,70.458-140.13c-4.063-33.859-44.126-92.625-98.565-87.763
		c-68.533,5.626-78.659,103.65-78.659,103.65C140.846,440.732,172.343,537.441,256.675,519.593z M614.913,359.271
		c62.432,8.23,102.854-57.844,110.626-107.864c7.985-49.971-32.091-107.84-76.399-117.654
		c-44.312-10.363-99.497,59.945-104.798,105.694C538.445,295.357,552.635,351.513,614.913,359.271z M767.731,653.258
		c0,0-96.359-73.844-152.818-153.903c-76.468-118.054-185.163-70.004-221.391-9.949c-36.099,59.812-92.54,98.113-100.791,108.089
		c-8.091,9.831-116.622,67.821-92.445,173.812c24.038,105.985,108.723,103.775,108.723,103.775s62.604,6.193,134.656-9.411
		c72.724-16.014,134.979,3.495,134.979,3.495s169.098,56.172,215.547-51.799C840.421,709.53,767.731,653.258,767.731,653.258z
		 M862.427,443.271c0-23.835-19.915-95.846-94.695-95.846c-74.285,0-84.358,67.888-84.358,116.008
		c0,46.051,3.773,109.947,96.663,108.12C872.535,569.583,862.427,467.344,862.427,443.271z"/>
	<path fill="#2932E1" d="M0,1.003L1000,0v1000H0V1.003z M63.249,933.836H999V1.003l-935.751,0V933.836z M999,998.997l-999-1V0h999
		V998.997z M935.752,64.161L0,64.161l0,933.836l935.752,1V64.161z"/>
</svg>
